HIERARCHY
ROOT Hips
{
	OFFSET -0.001795 -0.223333 0.028219
	CHANNELS 6 Xposition Yposition Zposition Zrotation Yrotation Xrotation 
	JOINT LeftUpLeg
	{
		OFFSET 0.069520 -0.091406 -0.006815
		CHANNELS 3 Zrotation Yrotation Xrotation
		JOINT LeftLeg
		{
			OFFSET 0.034277 -0.375199 -0.004496
			CHANNELS 3 Zrotation Yrotation Xrotation
			JOINT LeftFoot
			{
				OFFSET -0.013596 -0.397961 -0.043693
				CHANNELS 3 Zrotation Yrotation Xrotation
				JOINT LeftToe
				{
					OFFSET 0.026358 -0.055791 0.119288
					CHANNELS 3 Zrotation Yrotation Xrotation
					End Site
					{
						OFFSET 0.000000 0.000000 0.000000
					}
				}
			}
		}
	}
	JOINT RightUpLeg
	{
		OFFSET -0.067670 -0.090522 -0.004320
		CHANNELS 3 Zrotation Yrotation Xrotation
		JOINT RightLeg
		{
			OFFSET -0.038290 -0.382569 -0.008850
			CHANNELS 3 Zrotation Yrotation Xrotation
			JOINT RightFoot
			{
				OFFSET 0.015774 -0.398415 -0.042312
				CHANNELS 3 Zrotation Yrotation Xrotation
				JOINT RightToe
				{
					OFFSET -0.025372 -0.048144 0.123348
					CHANNELS 3 Zrotation Yrotation Xrotation
					End Site
					{
						OFFSET 0.000000 0.000000 0.000000
					}
				}
			}
		}
	}
	JOINT Spine
	{
		OFFSET -0.002533 0.108963 -0.026696
		CHANNELS 3 Zrotation Yrotation Xrotation
		JOINT Spine1
		{
			OFFSET 0.005487 0.135180 0.001092
			CHANNELS 3 Zrotation Yrotation Xrotation
			JOINT Spine2
			{
				OFFSET 0.001457 0.052922 0.025425
				CHANNELS 3 Zrotation Yrotation Xrotation
				JOINT Neck
				{
					OFFSET -0.002778 0.213870 -0.042857
					CHANNELS 3 Zrotation Yrotation Xrotation
					JOINT Head
					{
						OFFSET 0.005152 0.064970 0.051349
						CHANNELS 3 Zrotation Yrotation Xrotation
						End Site
						{
							OFFSET 0.000000 0.000000 0.000000
						}
					}
				}
				JOINT LeftShoulder
				{
					OFFSET 0.078845 0.121749 -0.034090
					CHANNELS 3 Zrotation Yrotation Xrotation
					JOINT LeftArm
					{
						OFFSET 0.090977 0.030469 -0.008868
						CHANNELS 3 Zrotation Yrotation Xrotation
						JOINT LeftForeArm
						{
							OFFSET 0.259612 -0.012772 -0.027456
							CHANNELS 3 Zrotation Yrotation Xrotation
							JOINT LeftHand
							{
								OFFSET 0.249234 0.008986 -0.001171
								CHANNELS 3 Zrotation Yrotation Xrotation
								End Site
								{
									OFFSET 0.000000 0.000000 0.000000
								}
							}
						}
					}
				}
				JOINT RightShoulder
				{
					OFFSET -0.081759 0.118833 -0.038615
					CHANNELS 3 Zrotation Yrotation Xrotation
					JOINT RightArm
					{
						OFFSET -0.096012 0.032551 -0.009143
						CHANNELS 3 Zrotation Yrotation Xrotation
						JOINT RightForeArm
						{
							OFFSET -0.253742 -0.013329 -0.021401
							CHANNELS 3 Zrotation Yrotation Xrotation
							JOINT RightHand
							{
								OFFSET -0.255298 0.007772 -0.005559
								CHANNELS 3 Zrotation Yrotation Xrotation
								End Site
								{
									OFFSET 0.000000 0.000000 0.000000
								}
							}
						}
					}
				}
			}
		}
	}
}
MOTION
Frames: 14
Frame Time: 0.050000
0.000000 0.759303 0.000000 -4.947051 8.071836 -4.078054 13.996281 -0.186986 -33.391142 -15.171589 6.412149 74.136543 8.888454 16.562967 -19.753239 0.000000 0.000000 0.000000 -14.777801 -3.734885 -50.122060 13.346618 -14.235827 83.374583 -5.436517 -12.954959 -1.615269 0.000000 0.000000 0.000000 -3.564589 -1.027964 28.811586 5.011178 -0.406580 -25.834650 1.911014 -2.802290 26.626392 1.052253 1.003731 -23.130803 0.000000 0.000000 0.000000 -7.674495 10.072938 -4.796932 -30.367617 -11.457054 -2.523663 152.859056 -16.891961 -55.880966 0.000000 0.000000 0.000000 -5.409007 -5.334048 -1.613602 21.899807 18.109074 -0.922975 -125.065160 4.957889 -1.578474 0.000000 0.000000 0.000000 
-0.024627 0.772084 0.025039 -6.132477 10.900941 -2.128690 17.313352 0.180519 -32.927634 -14.117782 4.158257 72.168069 8.361470 15.223361 -16.574404 0.000000 0.000000 0.000000 -16.968462 -5.648046 -50.116539 12.926741 -13.092371 75.022766 -6.109262 -15.056368 3.287681 0.000000 0.000000 0.000000 -1.486377 -1.582813 26.696891 5.439220 -0.306909 -29.023212 1.840074 -5.192275 29.042923 -0.505618 1.745572 -21.549545 0.000000 0.000000 0.000000 -8.710161 8.112541 -4.063223 -31.898048 -14.072711 -2.183983 152.027665 -22.388417 -68.669900 0.000000 0.000000 0.000000 -5.052149 -7.503916 -2.334230 18.231652 18.419865 -1.056836 -126.741597 8.867348 -10.273757 0.000000 0.000000 0.000000 
-0.051537 0.788773 0.053027 -5.616822 9.490736 -2.864745 19.472122 0.721654 -26.637508 -12.192479 2.848435 67.317936 8.015694 14.102474 -15.256667 0.000000 0.000000 0.000000 -16.431457 -4.497939 -46.979866 8.460363 -7.170567 66.808686 -3.858997 -9.681192 1.346622 0.000000 0.000000 0.000000 -0.653901 -1.379245 23.303765 6.676082 -0.854800 -24.635429 -0.501259 -3.045955 29.640850 1.590753 0.918903 -25.008838 0.000000 0.000000 0.000000 -10.804246 7.498345 -4.259899 -28.276714 -16.924016 -1.511735 149.337720 -26.299595 -74.151724 0.000000 0.000000 0.000000 -3.378009 -5.552418 -1.880377 14.327062 19.537260 -1.081744 -126.841389 6.044067 -4.761027 0.000000 0.000000 0.000000 
-0.081075 0.801408 0.084424 -5.775483 11.355748 -2.450577 20.681205 0.548100 -23.412813 -9.394648 -0.000676 63.690255 7.167885 10.836350 -15.948083 0.000000 0.000000 0.000000 -16.677766 -4.628881 -43.909161 5.374752 -4.199446 56.234960 -0.842319 -3.028123 2.647711 0.000000 0.000000 0.000000 0.563724 -1.604998 22.078503 6.044157 -0.613887 -25.593981 -1.126688 -5.636749 30.666527 0.880846 1.049599 -24.620996 0.000000 0.000000 0.000000 -9.340265 7.958572 -4.074697 -29.559708 -16.099932 -1.784485 150.328686 -30.940459 -84.526020 0.000000 0.000000 0.000000 -5.814369 -3.993853 -1.199108 14.232704 19.750916 -1.039181 -123.804108 8.417654 -9.801850 0.000000 0.000000 0.000000 
-0.114492 0.810741 0.117920 -4.270598 12.763648 -0.985950 20.777457 0.260868 -21.243608 -7.698709 -1.342639 59.320493 7.176452 10.135323 -16.572640 0.000000 0.000000 0.000000 -16.340274 -4.410608 -41.604684 2.924888 -2.633840 52.439950 2.116932 4.640240 1.002886 0.000000 0.000000 0.000000 -0.221791 -1.350252 20.595225 5.705492 -0.523074 -25.091191 -0.997261 -6.329777 29.251628 1.036711 0.923622 -23.868716 0.000000 0.000000 0.000000 -10.589567 6.518951 -3.629981 -26.336202 -16.780039 -1.539513 148.915882 -31.394704 -83.334171 0.000000 0.000000 0.000000 -5.665216 -0.773559 -0.195672 11.504381 19.532428 -1.040146 -121.630282 7.784303 -8.927548 0.000000 0.000000 0.000000 
-0.149189 0.814081 0.150560 -3.427019 14.456978 -0.678454 21.025583 0.012825 -19.391037 -6.184757 -2.689170 57.179887 6.730354 8.920264 -15.190879 0.000000 0.000000 0.000000 -15.771101 -4.377753 -40.520668 1.583637 -2.407852 54.542600 2.355845 6.038416 -0.528340 0.000000 0.000000 0.000000 0.124230 -1.470147 20.574344 5.478558 -0.443251 -24.926812 -2.024880 -7.789960 29.002771 0.485926 1.204450 -24.420336 0.000000 0.000000 0.000000 -11.133497 6.791807 -3.782175 -25.472410 -16.566896 -1.550999 147.092083 -30.018422 -77.548583 0.000000 0.000000 0.000000 -4.731295 0.086695 0.086588 10.165034 25.366407 -1.005975 -120.605395 9.606534 -11.798361 0.000000 0.000000 0.000000 
-0.181603 0.822654 0.178112 -3.151056 16.167217 -0.036032 22.667896 -0.137382 -18.441352 -5.980456 -2.874418 54.360859 6.150719 7.184772 -14.433254 0.000000 0.000000 0.000000 -14.404183 -4.146427 -40.576009 0.708417 -2.495696 56.530011 2.615577 6.718776 -0.613648 0.000000 0.000000 0.000000 0.692666 -1.661261 20.720622 4.205925 -0.097483 -25.006325 -1.163856 -8.190899 27.976100 -0.752853 2.059272 -24.833706 0.000000 0.000000 0.000000 -12.117781 4.992147 -3.155605 -24.262544 -17.052246 -1.406512 144.364694 -29.420459 -72.453234 0.000000 0.000000 0.000000 -4.788506 1.162300 0.389798 11.655566 25.613186 -0.852580 -120.923254 10.247014 -11.955580 0.000000 0.000000 0.000000 
-0.207641 0.836324 0.200066 -2.239717 16.539330 0.370408 23.286384 -0.034068 -20.524981 -8.038561 -1.735707 55.359987 6.022156 9.677847 -8.670237 0.000000 0.000000 0.000000 -11.825856 -2.986780 -39.575623 -1.170216 -1.476793 56.995060 2.826533 7.801052 -1.541694 0.000000 0.000000 0.000000 0.240722 -1.683190 21.600682 5.241582 -0.304906 -26.005836 -1.977936 -7.333325 29.132897 -0.798451 2.455070 -28.934550 0.000000 0.000000 0.000000 -14.596819 5.998764 -4.165317 -21.412520 -18.523638 -1.204727 140.026770 -28.860783 -66.191999 0.000000 0.000000 0.000000 -5.613686 1.994456 0.550262 12.517429 28.921042 -0.641047 -120.817466 9.246469 -8.889260 0.000000 0.000000 0.000000 
-0.226000 0.853709 0.218095 -0.917950 17.009682 0.272070 22.060569 -0.003235 -23.834541 -9.906384 -0.939740 58.755452 5.186035 8.333685 -7.294203 0.000000 0.000000 0.000000 -11.906312 -2.720526 -36.713666 -0.990103 -1.704785 55.203167 2.374880 6.939936 -2.083543 0.000000 0.000000 0.000000 -0.998348 -1.594389 22.928138 3.912846 -0.002732 -26.106165 -0.499841 -7.399860 28.758080 0.030848 2.026091 -29.289809 0.000000 0.000000 0.000000 -13.313894 4.256048 -3.125703 -19.868374 -19.538723 -1.067532 135.957837 -23.430016 -51.301097 0.000000 0.000000 0.000000 -6.970758 3.291839 0.890689 13.469577 28.475891 -0.474847 -121.076197 8.292850 -7.216083 0.000000 0.000000 0.000000 
-0.236707 0.872865 0.233158 0.059343 16.151617 1.428358 20.565987 -0.020737 -26.668299 -12.866345 1.396345 58.737151 5.342791 9.353055 -6.103102 0.000000 0.000000 0.000000 -10.345824 -1.758768 -34.949616 -1.808199 -0.744826 51.451224 1.562194 4.651570 -1.695002 0.000000 0.000000 0.000000 -1.773224 -1.309386 22.230229 4.488318 -0.211036 -24.093222 -0.391003 -5.670061 25.582837 0.868761 1.769220 -28.810933 0.000000 0.000000 0.000000 -11.657409 3.402908 -2.739273 -20.308076 -19.108919 -0.875686 133.855180 -21.941701 -46.773836 0.000000 0.000000 0.000000 -7.002801 2.799810 0.727747 14.949196 29.667003 0.024827 -122.218468 8.321964 -6.313850 0.000000 0.000000 0.000000 
-0.241153 0.886941 0.246099 0.821060 15.201575 2.347940 18.490788 -0.227198 -29.636259 -15.164143 3.255962 57.868853 6.162581 12.306470 -3.058713 0.000000 0.000000 0.000000 -9.917588 -1.374611 -34.047923 -1.206295 -0.778559 49.084552 0.230284 0.963020 -0.980295 0.000000 0.000000 0.000000 -0.830913 -1.390549 21.651115 4.408780 -0.185046 -24.339709 -1.097316 -4.741143 25.421130 1.793617 1.243945 -27.353020 0.000000 0.000000 0.000000 -10.895173 4.252543 -3.087620 -22.831735 -19.726856 -0.736313 134.023517 -21.942653 -46.809044 0.000000 0.000000 0.000000 -5.155351 2.156209 0.571225 16.519829 31.859572 0.403443 -124.954817 7.704112 -4.758938 0.000000 0.000000 0.000000 
-0.240641 0.893459 0.257350 2.041912 15.433644 3.016720 16.048048 -0.735151 -31.104159 -15.854244 3.561389 55.198794 6.424543 13.381746 -1.204470 0.000000 0.000000 0.000000 -10.534311 -1.463412 -32.431853 -1.354573 -0.709994 47.846471 0.023620 0.495174 -1.126569 0.000000 0.000000 0.000000 -0.601082 -1.350046 20.808756 4.152587 -0.117672 -23.973745 -0.892279 -5.173392 25.136588 2.063248 1.127191 -28.379490 0.000000 0.000000 0.000000 -11.662568 5.882514 -3.945716 -28.207097 -19.461040 -0.666877 134.507314 -22.061757 -46.689647 0.000000 0.000000 0.000000 -1.841750 0.639964 0.179654 19.292311 34.700708 1.081493 -128.885515 7.615825 -4.742556 0.000000 0.000000 0.000000 
-0.236613 0.891998 0.267014 2.731911 14.747086 3.025074 14.650664 -0.912875 -30.900043 -17.542280 4.558668 50.768721 7.609041 15.497950 -2.977379 0.000000 0.000000 0.000000 -10.532056 -1.309687 -31.626452 -1.412571 -0.579872 48.625938 0.262893 1.679795 -2.472045 0.000000 0.000000 0.000000 0.048621 -1.402383 20.458763 4.083885 -0.131674 -23.095509 -0.975871 -5.901974 24.334720 1.397136 1.155480 -26.442312 0.000000 0.000000 0.000000 -14.448924 9.011093 -5.819446 -33.928612 -18.635848 -0.752198 136.268694 -23.531455 -49.830800 0.000000 0.000000 0.000000 1.659109 -0.371758 -0.153984 24.166017 38.694116 2.628779 -134.098354 9.248607 -9.415375 0.000000 0.000000 0.000000 
-0.229708 0.891001 0.274834 2.562508 15.449898 2.211718 13.006995 -1.287556 -30.937706 -16.241905 3.534929 48.129770 5.891335 11.855930 -2.469991 0.000000 0.000000 0.000000 -10.077531 -1.043357 -28.830592 -0.914258 -1.021409 47.177887 -0.001769 1.514083 -3.845743 0.000000 0.000000 0.000000 0.270078 -1.527608 20.996684 4.162281 -0.096587 -24.158368 -1.024813 -7.397334 25.788796 1.832580 0.912066 -29.530560 0.000000 0.000000 0.000000 -16.865469 10.308773 -6.749257 -35.935914 -16.795130 -1.386587 135.783066 -23.832785 -49.078899 0.000000 0.000000 0.000000 6.222177 -1.734457 -0.828147 26.731085 41.364485 3.519860 -135.664403 8.607775 -9.027171 0.000000 0.000000 0.000000 
